# AST/ASF file generated using VICON BodyLanguage
# -----------------------------------------------
:version 1.10
:name VICON
:units
  mass 1.0
  length 0.45
  angle deg
:documentation
   .ast/.asf automatically generated from VICON data using
   VICON BodyBuilder and BodyLanguage model FoxedUp or BRILLIANT.MOD
:root
   order TX TY TZ RX RY RZ
   axis XYZ
   position 0 0 0  
   orientation 0 0 0 
:bonedata
  begin
     id 1 
     name lhipjoint
     direction 0.623529 -0.717805 0.309788 
     length 2.23224 
     axis 0 0 0  XYZ
  end
  begin
     id 2 
     name lfemur
     direction 0.34202 -0.939693 0  
     length 7.11402  
     axis 0 0 20  XYZ
    dof rx ry rz
    limits (-160.0 20.0)
           (-70.0 70.0)
           (-60.0 70.0)
  end
  begin
     id 3 
     name ltibia
     direction 0.34202 -0.939693 0   
     length 6.78496   
     axis 0 0 20   XYZ
    dof rx
    limits (-10.0 170.0)
  end
  begin
     id 4 
     name lfoot
     direction 0.125078 -0.343648 0.930732   
     length 1.84054   
     axis -90 7.62852e-016 20   XYZ
    dof rx rz
    limits (-45.0 90.0)
           (-70.0 20.0)
  end
  begin
     id 5 
     name ltoes
     direction 1.53565e-011 -4.21893e-011 1   
     length 0.916474   
     axis -90 7.62852e-016 20   XYZ
    dof rx
    limits (-90.0 20.0)
  end
  begin
     id 6 
     name rhipjoint
     direction -0.564688 -0.757748 0.327026   
     length 2.11457  
     axis 0 0 0  XYZ 
  end
  begin
     id 7 
     name rfemur
     direction -0.34202 -0.939693 0   
     length 7.14609   
     axis 0 0 -20   XYZ
    dof rx ry rz
    limits (-160.0 20.0)
           (-70.0 70.0)
           (-70.0 60.0)
  end
  begin
     id 8 
     name rtibia
     direction -0.34202 -0.939693 0   
     length 6.78101   
     axis 0 0 -20   XYZ
    dof rx
    limits (-10.0 170.0)
 end
 begin
     id 9 
     name rfoot
     direction -0.0992671 -0.272734 0.956955   
     length 1.96168  
     axis -90 -7.62852e-016 -20   XYZ
    dof rx rz
    limits (-45.0 90.0)
           (-20.0 70.0)
  end
  begin
     id 10 
     name rtoes
     direction -1.5356e-011 -4.21891e-011 1   
     length 0.982933   
     axis -90 -7.62852e-016 -20   XYZ
    dof rx
    limits (-90.0 20.0)
  end
  begin
     id 11 
     name lowerback
     direction -0.00596953 0.998668 0.0512524   
     length 1.87557   
     axis 0 0 0   XYZ
    dof rx ry rz
    limits (-20.0 45.0)
           (-30.0 30.0)
           (-30.0 30.0)
  end
  begin
     id 12 
     name upperback
     direction 0.00584879 0.999652 0.0257308   
     length 1.87883   
     axis 0 0 0   XYZ
    dof rx ry rz
    limits (-20.0 45.0)
           (-30.0 30.0)
           (-30.0 30.0)
  end
  begin
     id 13 
     name thorax
     direction 0.010104 0.999947 0.00178881   
     length 1.87779   
     axis 0 0 0   XYZ
    dof rx ry rz
    limits (-20.0 45.0)
           (-30.0 30.0)
           (-30.0 30.0)
  end
  begin
     id 14 
     name lowerneck
     direction 0.0120771 0.995934 -0.0892773   
     length 1.40897   
     axis 0 0 0   XYZ
    dof rx ry rz
    limits (-20.0 45.0)
           (-30.0 30.0)
           (-30.0 30.0)
  end
  begin
     id 15 
     name upperneck
     direction -0.030568 0.999465 -0.0116366   
     length 1.38661   
     axis 0 0 0   XYZ
    dof rx ry rz
    limits (-20.0 45.0)
           (-30.0 30.0)
           (-30.0 30.0)
  end
  begin
     id 16
     name head
     direction -0.0170715 0.999854 -0.00104426  
     length 1.47052  
     axis 0 0 0   XYZ
    dof rx ry rz
    limits (-20.0 45.0)
           (-30.0 30.0)
           (-30.0 30.0)
  end
  begin
     id 17 
     name lclavicle
     direction 0.977763 0.206143 0.038532  
     length 3.02424  
     axis 0 0 0   XYZ
    dof ry rz
    limits (-20.0 10.0)
           (0.0 20.0)
  end
  begin
     id 18 
     name lhumerus
     direction 1 -4.48965e-011 -2.62654e-027   
     length 4.68382   
     axis 180 -30 -90   XYZ
    dof rx ry rz
    limits (-60.0 90.0)
           (-90.0 90.0)
           (-90.0 90.0)
  end
  begin
     id 19
     name lradius
     direction 1 -4.48973e-011 -1.54954e-027   
     length 2.98124   
     axis 180 -30 -90   XYZ
    dof rx
    limits (-10.0 170.0)
  end
  begin
     id 20
     name lwrist
     direction 1 -4.48959e-011 7.20928e-028   
     length 1.49062   
     axis -5.52449e-016 90 90   XYZ
    dof ry
    limits (-180.0 0.0)
 end
  begin
     id 21 
     name lhand
     direction 1 -4.48971e-011 1.44186e-027   
     length 0.707595   
     axis -9.20027e-016 90 90   XYZ
    dof rx rz
    limits (-90.0 90.0)
           (-45.0 45.0)
  end
  begin
     id 22 
     name lfingers
     direction 1 -4.48985e-011 2.88371e-027   
     length 0.570481   
     axis -1.84005e-015 90 90   XYZ
    dof rx
    limits (0.0 90.0)
  end
  begin
     id 23
     name lthumb
     direction 0.707107 -6.34929e-011 0.707107   
     length 0.819101   
     axis -90 45 2.85299e-015   XYZ
    dof rx rz
    limits (-45.0 45.0)
           (-45.0 45.0)
  end
  begin
     id 24 
     name rclavicle
     direction -0.958661 0.284411 -0.00895327   
     length 3.11921  
     axis 0 0 0   XYZ 
    dof ry rz
    limits (-10.0 20.0)
           (-20.0 0.0)
  end
  begin
     id 25 
     name rhumerus
     direction -1 -4.48963e-011 -4.22193e-027  
     length 4.75876   
     axis 180 30 90   XYZ
    dof rx ry rz
    limits (-90.0 60.0)
           (-90.0 90.0)
           (-90.0 90.0)
  end
  begin
     id 26 
     name rradius
     direction -1 -4.48968e-011 -1.07616e-027   
     length 2.93293   
     axis 180 30 90   XYZ
    dof rx
    limits (-10.0 170.0)
  end
  begin
     id 27 
     name rwrist
     direction -1 -4.48965e-011 7.20928e-028   
     length 1.46647   
     axis -5.52449e-016 -90 -90   XYZ
    dof ry
    limits (-180.0 0.0)
  end
  begin
     id 28
     name rhand
     direction -1 -4.48971e-011 1.44186e-027   
     length 0.831748   
     axis -9.20027e-016 -90 -90   XYZ
    dof rx rz
    limits (-90.0 90.0)
           (-45.0 45.0)
  end
  begin
     id 29
     name rfingers
     direction -1 -4.48961e-011 2.88371e-027   
     length 0.670577   
     axis -1.84005e-015 -90 -90   XYZ
    dof rx
    limits (0.0 90.0)
  end
  begin
     id 30
     name rthumb
     direction -0.707107 -6.34929e-011 0.707107   
     length 0.962818   
     axis -90 -45 -2.85299e-015   XYZ
    dof rx rz
    limits (-45.0 45.0)
           (-45.0 45.0)
  end
:hierarchy
  begin
    root lhipjoint rhipjoint lowerback
    lhipjoint lfemur
    lfemur ltibia
    ltibia lfoot
    lfoot ltoes
    rhipjoint rfemur
    rfemur rtibia
    rtibia rfoot
    rfoot rtoes
    lowerback upperback
    upperback thorax
    thorax lowerneck lclavicle rclavicle
    lowerneck upperneck
    upperneck head
    lclavicle lhumerus
    lhumerus lradius
    lradius lwrist
    lwrist lhand lthumb
    lhand lfingers
    rclavicle rhumerus
    rhumerus rradius
    rradius rwrist
    rwrist rhand rthumb
    rhand rfingers
  end

#!OML:ASF E:\id_vita\Project 1\Capture day 1\Session 1\Female.ASF
:FULLY-SPECIFIED
:DEGREES
481
root 31.8401 16.0394 -1.0275 -115.032 -87.6297 130.731
lowerback -12.2423 -1.24718 -6.38985
upperback -3.65842 -1.07551 1.34433
thorax 3.1454 -0.606491 4.86027
lowerneck 5.33049 0.511404 -3.84055
upperneck -10.6143 0.817912 5.35694
head -4.0758 0.236456 2.23036
rclavicle -3.35449e-016 -6.95746e-015
rhumerus -37.1772 -21.1376 -75.3409
rradius 21.556
rwrist 21.0199
rhand -12.5226 9.47932
rfingers 7.12502
rthumb 13.5533 -20.0596
lclavicle -3.35449e-016 -6.95746e-015
lhumerus -15.738 12.457 90.6547
lradius 27.8318
lwrist -25.9446
lhand -9.78689 20.8218
lfingers 7.12502
lthumb 16.1889 50.1658
rfemur -43.8983 11.4953 14.8261
rtibia 15.859
rfoot -2.38671 -3.2271
rtoes -8.0643
lfemur -0.193692 -9.91952 -27.7587
ltibia 23.9314
lfoot -18.2417 3.12343
ltoes -2.03197
482
root 31.639 16.0536 -1.03951 -109.15 -87.7809 125.083
lowerback -12.2575 -1.29099 -6.32735
upperback -4.09791 -1.17112 1.34079
thorax 2.70167 -0.636404 4.80865
lowerneck 5.36567 0.427047 -3.79473
upperneck -10.181 0.696543 5.30759
head -3.94436 0.183483 2.21072
rclavicle -3.91357e-016 2.0276e-014
rhumerus -38.147 -21.8788 -74.4684
rradius 21.2106
rwrist 21.8491
rhand -12.5514 9.04712
rfingers 7.12502
rthumb 13.5256 -20.4936
lclavicle -3.91357e-016 2.0276e-014
lhumerus -16.9929 12.9876 90.3315
lradius 27.5211
lwrist -27.1006
lhand -10.104 19.9905
lfingers 7.12502
lthumb 15.8835 49.359
rfemur -44.3037 11.1404 15.1498
rtibia 17.4792
rfoot -2.18562 -3.70333
rtoes -9.48867
lfemur 0.166843 -9.78784 -27.5942
ltibia 23.9424
lfoot -17.1695 1.87489
ltoes -1.65398
483
root 31.4359 16.0755 -1.05425 -101.365 -88.0441 117.641
lowerback -13.0544 -1.42521 -6.09614
upperback -4.11961 -1.33428 1.32979
thorax 3.12968 -0.734702 4.63173
lowerneck 5.28725 0.383416 -3.72162
upperneck -9.81004 0.610485 5.09253
head -4.236 0.168612 2.36824
rclavicle 1.09704e-014 1.59028e-015
rhumerus -38.424 -22.9881 -73.8641
rradius 20.7564
rwrist 22.8767
rhand -12.776 8.77607
rfingers 7.12502
rthumb 13.3091 -20.7789
lclavicle 1.09704e-014 1.59028e-015
lhumerus -17.5393 14.0476 89.9329
lradius 26.8565
lwrist -28.5568
lhand -8.99855 20.0195
lfingers 7.12502
lthumb 16.9478 49.3001
rfemur -44.7601 10.9298 15.4091
rtibia 18.7424
rfoot -1.75304 -4.10817
rtoes -10.1943
lfemur 0.301361 -9.70415 -27.2286
ltibia 24.1037
lfoot -15.8454 0.675802
ltoes -2.2314
484
root 31.2307 16.1023 -1.069 -96.5147 -88.4066 113.087
lowerback -13.2405 -1.43962 -5.72997
upperback -4.54671 -1.42331 1.37798
thorax 2.78587 -0.768353 4.46099
lowerneck 5.5003 0.335334 -3.67869
upperneck -9.53173 0.539983 5.06191
head -4.17405 0.135436 2.35017
rclavicle 1.31322e-014 -1.88845e-014
rhumerus -39.4662 -24.1326 -72.6943
rradius 20.3225
rwrist 23.9478
rhand -12.7637 8.6591
rfingers 7.12502
rthumb 13.3209 -20.8951
lclavicle 1.31322e-014 -1.88845e-014
lhumerus -18.8181 15.0912 89.3791
lradius 26.1328
lwrist -29.7602
lhand -8.15329 20.0924
lfingers 7.12502
lthumb 17.7613 49.3013
rfemur -44.8925 10.6931 15.9808
rtibia 19.5922
rfoot -1.51663 -4.13602
rtoes -10.8111
lfemur 0.284645 -9.36423 -26.6614
ltibia 24.6026
lfoot -14.4787 -0.720069
ltoes -2.79132
485
root 31.018 16.1244 -1.08887 -93.7087 -88.6879 110.483
lowerback -14.074 -1.53119 -5.65996
upperback -4.45135 -1.51413 1.55582
thorax 3.35114 -0.833691 4.58284
lowerneck 5.25228 0.400602 -3.92969
upperneck -9.4543 0.621212 5.19693
head -4.10621 0.181264 2.43561
rclavicle -3.54085e-016 -9.74045e-015
rhumerus -39.7331 -25.7647 -71.3456
rradius 19.6145
rwrist 25.4593
rhand -12.4684 9.16976
rfingers 7.12502
rthumb 13.6056 -20.3656
lclavicle -3.54085e-016 -9.74045e-015
lhumerus -19.3653 16.2626 89.0973
lradius 25.3893
lwrist -30.8425
lhand -9.33068 19.151
lfingers 7.12502
lthumb 16.6281 48.4587
rfemur -44.7203 10.6228 16.5146
rtibia 20.1827
rfoot -1.2141 -4.1529
rtoes -11.3034
lfemur 0.16348 -8.65685 -26.0948
ltibia 25.4366
lfoot -13.3115 -2.35884
ltoes -2.94524
486
root 30.8102 16.1406 -1.10496 -87.6398 -88.9948 104.593
lowerback -14.4142 -1.57125 -5.32571
upperback -4.59428 -1.61115 1.61293
thorax 3.39013 -0.884393 4.4324
lowerneck 4.70333 0.46133 -3.98118
upperneck -8.95705 0.704486 5.22517
head -3.82636 0.232222 2.43602
rclavicle 5.03174e-016 -1.23246e-014
rhumerus -40.4493 -27.1113 -70.1693
rradius 18.9533
rwrist 26.7476
rhand -12.4545 10.014
rfingers 7.12502
rthumb 13.619 -19.5205
lclavicle 5.03174e-016 -1.23246e-014
lhumerus -20.3453 17.0979 88.5332
lradius 24.7204
lwrist -31.7453
lhand -12.2928 17.3275
lfingers 7.12502
lthumb 13.7749 46.8515
rfemur -44.4545 10.3194 17.2206
rtibia 20.7241
rfoot -1.02248 -3.75458
rtoes -11.7241
lfemur -0.0549664 -7.80376 -25.4926
ltibia 26.4701
lfoot -11.9044 -3.96069
ltoes -3.25307
487
root 30.6022 16.162 -1.12089 -76.772 -89.3664 93.9024
lowerback -14.8514 -1.59631 -4.93727
upperback -4.71496 -1.69558 1.71387
thorax 3.50212 -0.931483 4.29754
lowerneck 4.30265 0.384952 -3.97271
upperneck -8.32525 0.592535 5.12003
head -3.51862 0.190556 2.388
rclavicle 2.79852e-015 -1.33186e-014
rhumerus -41.1205 -28.3109 -69.0863
rradius 18.3537
rwrist 27.8449
rhand -12.6175 10.2709
rfingers 7.12502
rthumb 13.4619 -19.2741
lclavicle 2.79852e-015 -1.33186e-014
lhumerus -21.4617 18.0708 87.9109
lradius 24.0077
lwrist -32.5604
lhand -13.2177 17.177
lfingers 7.12502
lthumb 12.8833 46.7594
rfemur -44.0788 9.97731 18.061
rtibia 21.2475
rfoot -1.31858 -3.25902
rtoes -11.7055
lfemur -0.446056 -6.94644 -24.752
ltibia 27.6381
lfoot -10.0509 -5.62195
ltoes -2.27942
488
root 30.3946 16.1903 -1.13553 -66.0316 -89.6436 83.1878
lowerback -14.893 -1.55955 -4.74557
upperback -5.02207 -1.70156 1.86298
thorax 3.19976 -0.927848 4.34776
lowerneck 4.5473 0.430543 -4.18627
upperneck -8.0928 0.63847 5.23469
head -3.49202 0.216068 2.46346
rclavicle -1.37674e-014 1.2921e-014
rhumerus -42.2326 -29.6939 -67.3851
rradius 17.7324
rwrist 29.0571
rhand -12.7344 10.1634
rfingers 7.12502
rthumb 13.3493 -19.3889
lclavicle -1.37674e-014 1.2921e-014
lhumerus -23.08 19.2207 87.2236
lradius 23.2895
lwrist -33.4418
lhand -8.71436 20.5023
lfingers 7.12502
lthumb 17.2214 49.7592
rfemur -43.4737 9.70004 18.7997
rtibia 21.7602
rfoot -1.92652 -2.9374
rtoes -11.0674
lfemur -0.838104 -5.93267 -24.0872
ltibia 28.8756
lfoot -7.72546 -7.45541
ltoes 0.652498
489
root 30.192 16.2188 -1.14857 -81.6063 -89.7436 98.7594
lowerback -15.2698 -1.51764 -4.5603
upperback -5.01111 -1.65962 1.83837
thorax 3.40422 -0.914593 4.21791
lowerneck 4.59771 0.500667 -4.2286
upperneck -8.13531 0.731331 5.26319
head -3.5228 0.261515 2.47836
rclavicle 7.45054e-015 -2.84262e-014
rhumerus -43.0028 -31.6469 -65.728
rradius 16.997
rwrist 30.6519
rhand -12.8906 10.1426
rfingers 7.12502
rthumb 13.1987 -19.4196
lclavicle 7.45054e-015 -2.84262e-014
lhumerus -24.0913 20.5752 86.35
lradius 22.3437
lwrist -34.7619
lhand -8.9382 20.8342
lfingers 7.12502
lthumb 17.0059 50.1097
rfemur -42.9023 9.3723 19.3371
rtibia 22.3119
rfoot -2.75673 -2.48807
rtoes -11.1174
lfemur -1.23427 -4.69794 -23.6689
ltibia 30.1099
lfoot -5.04089 -9.18552
ltoes 3.37528
